<?xml version="1.0" standalone="no"?>
<!DOCTYPE svg PUBLIC "-//W3C//DTD SVG 20010904//EN"
 "http://www.w3.org/TR/2001/REC-SVG-20010904/DTD/svg10.dtd">
<svg version="1.0" xmlns="http://www.w3.org/2000/svg"
 width="646.000000pt" height="319.000000pt" viewBox="0 0 646.000000 319.000000"
 preserveAspectRatio="xMidYMid meet">

<g transform="translate(0.000000,319.000000) scale(0.100000,-0.100000)"
fill="#000000" stroke="none">
<path d="M390 2960 l0 -120 -155 0 -155 0 0 -1200 0 -1200 170 0 170 0 0 -120
0 -120 145 0 145 0 0 120 0 120 230 0 230 0 0 -120 0 -120 165 0 165 0 0 120
0 120 215 0 215 0 0 -120 0 -120 145 0 145 0 0 120 0 120 255 0 255 0 0 -120
0 -120 140 0 140 0 0 120 0 120 225 0 225 0 0 -120 0 -120 145 0 145 0 0 120
0 120 245 0 245 0 0 -120 0 -120 150 0 150 0 0 120 0 120 220 0 220 0 0 -120
0 -120 165 0 165 0 0 120 0 120 230 0 230 0 0 -120 0 -120 145 0 145 0 0 120
0 120 165 0 165 0 0 1200 0 1200 -151 0 -150 0 3 120 3 120 -152 0 -153 0 0
-120 0 -120 -235 0 -235 0 0 120 0 120 -150 0 -150 0 0 -120 0 -120 -240 0
-240 0 0 120 0 120 -150 0 -150 0 0 -120 0 -120 -245 0 -245 0 0 120 0 120
-145 0 -145 0 0 -120 0 -120 -225 0 -225 0 0 120 0 120 -140 0 -140 0 0 -120
0 -120 -255 0 -255 0 0 120 0 120 -145 0 -145 0 0 -120 0 -120 -240 0 -240 0
0 120 0 120 -145 0 -145 0 0 -120 0 -120 -240 0 -240 0 0 120 0 120 -145 0
-145 0 0 -120z m270 -5 l0 -115 -30 0 c-29 0 -30 2 -30 45 0 25 -4 45 -10 45
-5 0 -10 -7 -10 -15 0 -12 -13 -15 -60 -15 -46 0 -60 -3 -60 -14 0 -8 5 -18
10 -21 22 -13 8 -25 -30 -25 l-40 0 0 115 0 115 130 0 130 0 0 -115z m770 0
l0 -115 -30 0 c-29 0 -30 2 -30 45 0 25 -4 45 -10 45 -5 0 -9 -6 -7 -12 1 -9
-17 -15 -58 -18 -58 -5 -60 -6 -58 -32 2 -26 -1 -28 -33 -28 l-34 0 0 115 0
115 130 0 130 0 0 -115z m771 103 c0 -7 2 -59 2 -116 l2 -102 -33 0 c-26 0
-33 4 -31 18 1 9 1 31 0 47 -1 25 -3 27 -12 13 -8 -14 -23 -18 -64 -18 -56 0
-60 -3 -56 -42 2 -14 -5 -18 -32 -18 l-33 0 -1 108 c0 59 2 110 4 115 2 4 60
7 129 7 92 0 124 -3 125 -12z m789 -103 l0 -115 -40 0 c-22 0 -39 3 -39 8 5
28 -3 82 -11 82 -5 0 -10 -7 -10 -15 0 -12 -13 -15 -55 -15 -56 0 -60 -3 -56
-42 1 -10 -4 -18 -13 -18 -14 0 -16 17 -16 115 l0 115 120 0 120 0 0 -115z
m740 -1 l0 -115 -27 3 c-24 3 -28 7 -25 30 2 15 -1 35 -7 45 -9 16 -10 17 -11
1 0 -14 -11 -18 -57 -20 -57 -3 -58 -4 -55 -30 3 -26 0 -28 -38 -28 l-40 0 0
115 0 115 130 0 130 0 0 -116z m790 1 l0 -115 -35 0 c-26 0 -35 4 -36 18 -2
44 -19 98 -19 59 0 -14 -11 -17 -59 -17 -43 0 -60 -4 -64 -15 -4 -8 -2 -17 3
-20 20 -12 9 -25 -20 -25 l-30 0 0 115 0 115 130 0 130 0 0 -115z m790 0 l0
-115 -45 0 -45 0 0 45 c0 25 -4 45 -10 45 -5 0 -10 -7 -10 -15 0 -12 -13 -15
-61 -15 l-61 0 6 -30 c5 -28 3 -30 -24 -30 l-30 0 0 115 0 115 140 0 140 0 0
-115z m770 0 l0 -115 -140 0 -140 0 0 115 0 115 140 0 140 0 0 -115z m-5497
-95 c5 -18 0 -20 -44 -20 -34 0 -49 4 -49 13 0 21 11 27 51 27 28 0 38 -5 42
-20z m765 -7 c2 -9 -10 -13 -42 -13 -35 0 -46 4 -46 16 0 12 9 14 42 12 23 -2
43 -9 46 -15z m777 2 c0 -5 -21 -11 -47 -13 -39 -3 -48 0 -48 13 0 13 9 16 48
13 26 -2 47 -7 47 -13z m765 0 c0 -11 -12 -15 -50 -15 -46 0 -60 7 -43 23 3 4
26 7 50 7 32 0 43 -4 43 -15z m768 -2 c2 -9 -10 -13 -42 -13 -43 0 -63 10 -49
24 12 11 86 2 91 -11z m770 0 c2 -9 -10 -13 -42 -13 -43 0 -63 10 -49 24 12
11 86 2 91 -11z m772 2 c0 -11 -12 -15 -45 -15 -33 0 -45 4 -45 15 0 11 12 15
45 15 33 0 45 -4 45 -15z m-1957 -454 c6 -6 18 -11 26 -11 21 0 71 -59 78 -93
3 -15 10 -30 14 -33 13 -8 11 -181 -2 -190 -18 -11 -369 -8 -380 3 -12 12 -17
144 -7 185 18 75 68 135 127 150 35 9 131 2 144 -11z m82 -429 c31 -26 49 -78
47 -138 -2 -63 -18 -94 -49 -94 -18 0 -23 6 -23 24 0 14 5 28 11 31 14 9 8 75
-9 103 -10 16 -24 22 -48 22 -27 0 -36 -6 -49 -30 -8 -16 -15 -43 -15 -60 0
-27 -3 -30 -30 -30 -28 0 -30 3 -30 38 -1 46 -19 72 -52 72 -17 0 -29 -8 -37
-26 -12 -28 -6 -90 11 -100 5 -3 0 -13 -12 -21 -20 -14 -24 -14 -38 1 -13 13
-17 35 -17 90 0 85 16 111 71 122 36 7 94 -20 94 -44 0 -7 14 3 31 23 27 31
37 35 78 35 28 -1 54 -7 66 -18z m-75 -289 c44 -20 100 -78 100 -104 0 -10 5
-19 10 -19 6 0 10 -22 10 -50 0 -45 -2 -50 -23 -50 -19 0 -24 8 -35 53 -7 28
-17 54 -22 55 -6 2 -10 8 -10 14 0 14 -42 47 -60 48 -12 0 -13 -2 -1 -9 18
-12 21 -123 3 -129 -7 -2 -12 -9 -12 -15 0 -7 -12 -20 -26 -31 -37 -26 -124
-18 -160 15 -48 45 -59 110 -28 175 31 64 161 88 254 47z m115 -428 c0 -125
-1 -130 -21 -133 -15 -2 -33 11 -60 44 -61 72 -82 94 -94 94 -5 0 -10 3 -10 8
0 13 -64 43 -85 39 -49 -10 -55 -17 -55 -73 0 -38 4 -56 14 -60 20 -8 9 -31
-16 -38 -28 -7 -45 17 -54 71 -15 100 23 163 100 163 66 0 93 -14 163 -86 l63
-64 0 69 c0 85 6 103 34 99 20 -3 21 -8 21 -133z m5 -280 l0 -115 -201 0 -200
0 3 28 3 27 168 3 167 2 0 85 0 85 30 0 30 0 0 -115z m-2680 -650 l0 -115
-130 0 -130 0 0 115 0 115 130 0 130 0 0 -115z m790 0 l0 -115 -145 0 -145 0
0 115 0 115 145 0 145 0 0 -115z m721 108 c4 -31 6 -192 2 -205 -4 -16 -19
-18 -129 -18 -68 0 -125 3 -125 8 -4 21 -6 208 -2 215 2 4 60 7 129 7 68 0
124 -3 125 -7z m789 -108 l0 -115 -120 0 -120 0 0 115 0 115 120 0 120 0 0
-115z m740 0 l0 -116 -127 3 -128 3 -3 113 -3 112 131 0 130 0 0 -115z m790 0
l0 -115 -130 0 -130 0 0 115 0 115 130 0 130 0 0 -115z m770 0 l0 -115 -145 0
-145 0 0 115 0 115 145 0 145 0 0 -115z m760 0 l0 -115 -130 0 -130 0 0 115 0
115 130 0 130 0 0 -115z"/>
<path d="M468 3034 c-12 -12 -9 -51 5 -62 21 -17 58 -24 92 -18 36 7 47 28 34
64 -11 30 -75 32 -84 2 -3 -11 -3 -24 0 -30 3 -5 3 -10 -2 -10 -17 0 -31 16
-34 38 -2 13 -7 20 -11 16z m112 -34 c0 -13 -7 -20 -20 -20 -13 0 -20 7 -20
20 0 13 7 20 20 20 13 0 20 -7 20 -20z"/>
<path d="M1308 3023 c-9 -2 -20 -13 -23 -24 -8 -25 -35 -25 -35 1 0 11 -4 20
-10 20 -5 0 -10 -13 -10 -30 0 -27 3 -30 33 -30 26 0 36 6 45 25 10 22 14 24
31 13 10 -6 17 -18 14 -25 -3 -7 0 -13 6 -13 19 0 12 49 -8 60 -11 5 -21 9
-23 9 -2 -1 -11 -3 -20 -6z"/>
<path d="M2046 3021 c-22 -3 -41 -10 -42 -16 -4 -13 85 -67 97 -60 5 4 9 13 9
22 0 9 8 22 17 29 10 7 16 15 13 17 -10 11 -56 14 -94 8z m34 -41 c0 -5 -2
-10 -4 -10 -3 0 -8 5 -11 10 -3 6 -1 10 4 10 6 0 11 -4 11 -10z"/>
<path d="M2775 3016 c-15 -22 -12 -56 5 -56 5 0 10 10 12 22 4 27 28 36 28 11
0 -30 12 -35 24 -10 16 30 52 30 49 0 -2 -15 3 -23 12 -23 19 0 19 30 -1 58
-17 24 -43 29 -62 10 -9 -9 -15 -9 -24 0 -17 17 -26 15 -43 -12z"/>
<path d="M3548 3016 c-22 -17 -23 -52 -2 -60 13 -5 15 -2 11 13 -10 40 18 43
64 7 31 -25 46 -32 51 -23 11 17 10 65 -2 72 -6 4 -10 -5 -10 -19 0 -32 -5
-32 -42 -1 -33 28 -45 30 -70 11z"/>
<path d="M4430 3025 c0 -12 -13 -15 -58 -15 -66 0 -76 -5 -61 -31 12 -23 29
-25 29 -4 0 11 11 15 41 15 32 0 42 -4 46 -20 3 -11 9 -17 14 -14 12 7 11 84
-1 84 -5 0 -10 -7 -10 -15z"/>
<path d="M5092 3028 c-22 -22 -14 -64 13 -76 56 -26 115 -6 115 38 0 13 -8 29
-17 36 -22 17 -95 18 -111 2z m86 -14 c30 -8 28 -28 -4 -43 -21 -9 -33 -9 -55
1 -33 15 -36 23 -11 37 20 12 38 13 70 5z"/>
<path d="M5854 2958 c-14 -32 -8 -51 21 -64 20 -10 27 -8 45 8 13 13 19 26 15
39 -4 10 -2 19 2 19 15 0 33 -23 33 -42 0 -10 5 -18 10 -18 17 0 11 52 -7 66
-10 7 -39 14 -64 14 -38 0 -47 -4 -55 -22z m56 -17 c0 -23 -25 -34 -39 -17 -7
9 -7 16 1 24 18 18 38 14 38 -7z"/>
<path d="M3123 2340 c-66 -10 -96 -56 -97 -150 l-1 -45 140 -6 c77 -3 142 -4
144 -2 11 8 5 91 -7 124 -25 65 -87 93 -179 79z"/>
<path d="M3059 1617 c-21 -16 -31 -50 -24 -80 5 -18 17 -27 43 -34 77 -20 125
26 97 92 -13 32 -17 35 -57 35 -24 0 -50 -6 -59 -13z"/>
<path d="M604 365 c-5 -11 -21 -15 -60 -15 -53 0 -54 0 -54 -30 0 -16 5 -30
10 -30 6 0 10 7 10 15 0 11 12 15 45 15 33 0 45 -4 45 -15 0 -8 7 -15 15 -15
11 0 15 12 15 45 0 44 -15 60 -26 30z"/>
<path d="M1268 356 c-22 -16 -24 -66 -3 -66 9 0 15 9 15 25 0 32 20 32 51 2
13 -13 32 -26 42 -30 14 -5 17 0 17 33 0 22 -4 40 -10 40 -5 0 -10 -9 -10 -20
0 -26 -10 -25 -42 5 -31 28 -36 29 -60 11z"/>
<path d="M2020 330 c0 -22 5 -40 10 -40 6 0 10 11 10 25 0 16 6 25 15 25 8 0
15 -7 15 -15 0 -8 7 -15 15 -15 9 0 15 9 15 21 0 32 34 20 38 -14 4 -36 22
-35 22 2 0 41 -24 58 -61 44 -16 -6 -29 -7 -29 -2 0 5 -11 9 -25 9 -22 0 -25
-4 -25 -40z"/>
<path d="M2870 360 c0 -5 -18 -10 -40 -10 -29 0 -40 -4 -40 -15 0 -8 7 -15 15
-15 8 0 15 -3 15 -7 0 -11 57 -42 64 -35 3 3 6 15 6 28 0 14 8 24 23 29 l22 8
-22 4 c-13 2 -23 9 -23 14 0 5 -4 9 -10 9 -5 0 -10 -4 -10 -10z m0 -40 c0 -13
-11 -13 -30 0 -12 8 -11 10 8 10 12 0 22 -4 22 -10z"/>
<path d="M3623 355 c-7 -8 -13 -19 -13 -25 0 -5 -7 -10 -15 -10 -8 0 -15 7
-15 15 0 8 -7 15 -15 15 -20 0 -20 -49 0 -56 25 -10 62 5 68 27 7 26 31 20 35
-9 4 -25 20 -29 28 -7 8 20 -22 65 -44 65 -9 -1 -23 -7 -29 -15z"/>
<path d="M4385 364 c-9 -10 -14 -26 -12 -36 4 -14 2 -18 -10 -14 -8 3 -17 6
-19 6 -2 0 -4 11 -4 25 0 14 -4 25 -10 25 -5 0 -10 -15 -10 -34 0 -48 38 -61
117 -41 45 11 22 85 -26 85 -5 0 -17 -7 -26 -16z m55 -29 c0 -9 -7 -18 -16
-22 -18 -7 -39 11 -30 26 11 17 46 13 46 -4z"/>
<path d="M5090 330 c0 -22 5 -40 10 -40 6 0 10 14 10 32 0 28 2 30 18 17 44
-36 102 -52 102 -29 0 6 -6 10 -14 10 -7 0 -34 11 -60 25 -26 14 -51 25 -57
25 -5 0 -9 -18 -9 -40z"/>
<path d="M5926 365 c-9 -9 -17 -11 -21 -5 -3 5 -17 10 -31 10 -23 0 -25 -3
-22 -37 3 -36 5 -38 38 -39 19 -1 40 -3 45 -4 6 -1 20 -2 33 -1 18 1 22 7 22
34 0 52 -32 73 -64 42z m-31 -35 c0 -7 -6 -15 -12 -17 -8 -3 -13 4 -13 17 0
13 5 20 13 18 6 -3 12 -11 12 -18z m75 0 c0 -11 -6 -20 -13 -20 -19 0 -27 10
-20 26 8 21 33 17 33 -6z"/>
</g>
</svg>
