<?xml version="1.0" standalone="no"?>
<!DOCTYPE svg PUBLIC "-//W3C//DTD SVG 20010904//EN"
 "http://www.w3.org/TR/2001/REC-SVG-20010904/DTD/svg10.dtd">
<svg version="1.0" xmlns="http://www.w3.org/2000/svg"
 width="500.000000pt" height="500.000000pt" viewBox="0 0 500.000000 500.000000"
 preserveAspectRatio="xMidYMid meet">
<metadata>
Created by potrace 1.16, written by Peter Selinger 2001-2019
</metadata>
<g transform="translate(0.000000,500.000000) scale(0.100000,-0.100000)"
fill="#000000" stroke="none">
<path d="M4050 3112 l0 -62 -77 0 c-43 0 -160 -3 -260 -7 -101 -3 -183 -3
-183 1 0 13 35 46 50 47 8 0 5 4 -8 10 -13 5 -26 18 -29 29 -9 35 -28 16 -31
-30 -2 -25 -5 -47 -8 -49 -10 -11 -1584 -12 -1584 -2 0 19 45 41 85 42 l40 2
-48 6 c-32 5 -52 14 -63 29 -25 36 -36 26 -33 -30 l3 -52 -359 -3 c-198 -1
-496 -2 -662 -3 l-303 0 0 -81 c0 -51 -4 -78 -10 -74 -5 3 -10 25 -10 48 0 51
-14 77 -31 60 -22 -22 -40 -270 -31 -426 5 -87 5 -88 34 -94 25 -5 28 -9 28
-47 0 -37 -3 -43 -29 -53 -38 -14 -40 -31 -38 -336 2 -206 5 -250 17 -257 19
-12 47 -13 52 -1 2 5 17 11 33 13 27 3 30 1 27 -24 -1 -14 2 -29 8 -33 6 -4
10 4 10 19 0 29 -4 27 105 32 75 2 85 -3 85 -47 l0 -27 42 15 c24 8 45 17 48
19 8 8 -23 24 -47 24 -13 0 -23 4 -23 9 0 11 131 18 180 10 l35 -6 -28 -12
c-32 -13 -32 -30 1 -42 20 -7 23 -5 28 21 4 16 11 31 18 33 6 2 69 4 141 3
l129 -1 9 -40 c5 -22 11 -41 12 -43 2 -2 15 4 29 13 21 14 43 17 111 13 90 -5
91 -4 85 45 -1 16 9 18 147 15 l148 -3 3 -47 c3 -53 17 -61 46 -27 17 20 24
21 99 14 45 -4 85 -11 88 -17 4 -5 9 10 13 33 l6 44 408 0 407 0 10 -51 c10
-49 11 -50 28 -34 30 29 147 41 188 20 16 -9 19 -7 19 8 0 10 6 26 13 37 12
15 31 18 145 21 81 2 134 -1 138 -7 3 -6 6 -26 7 -45 1 -20 6 -33 11 -31 6 2
44 15 85 27 69 22 76 23 102 8 31 -18 39 -15 39 18 0 31 34 37 181 32 l114 -3
5 -55 c4 -40 9 -55 20 -55 8 0 16 10 18 22 2 15 17 27 47 40 24 9 41 21 39 25
-3 5 0 8 5 8 6 0 11 -4 11 -10 0 -5 21 -10 48 -9 26 0 41 3 35 6 -7 2 -13 10
-13 17 0 9 29 13 104 15 l103 2 7 -32 c3 -17 7 -64 7 -103 2 -64 2 -67 8 -26
9 58 26 89 57 100 24 10 32 34 14 45 -5 3 -10 14 -10 23 1 14 4 13 20 -7 16
-19 20 -20 20 -6 0 9 7 23 15 31 13 13 15 58 15 279 0 255 -1 265 -20 275 -11
6 -28 10 -38 8 -14 -2 -18 6 -20 45 -2 36 0 47 12 47 8 0 18 -5 21 -11 5 -6
13 -3 22 11 22 32 7 350 -17 335 -4 -2 -10 -27 -14 -55 -4 -31 -11 -48 -17
-44 -6 4 -9 66 -8 167 l2 162 -29 6 c-16 4 -76 7 -133 8 l-103 1 6 25 c6 22 3
25 -21 25 -25 0 -26 -1 -8 -14 11 -8 16 -19 12 -30 -5 -13 -22 -16 -95 -16
-49 0 -92 3 -95 7 -4 3 0 15 10 25 12 13 32 18 82 20 l66 2 -70 5 c-60 5 -71
9 -81 29 -26 52 -34 48 -34 -16z m-2182 -97 c5 -5 -288 -7 -903 -6 -181 0
-334 1 -338 1 -5 0 -6 4 -2 9 6 10 1234 6 1243 -4z m1052 4 c41 -2 -6 -6 -105
-9 -254 -7 -944 0 -920 10 18 7 839 7 1025 -1z"/>
</g>
</svg>
